<?xml version="1.0" encoding="utf-8" ?>
<svg baseProfile="full" height="708" version="1.1" width="985" xmlns="http://www.w3.org/2000/svg" xmlns:ev="http://www.w3.org/2001/xml-events" xmlns:xlink="http://www.w3.org/1999/xlink"><defs /><path d="M 296.0,396.0 L 296.0,397.0 L 295.0,398.0 L 295.0,399.0 L 294.0,400.0 L 294.0,401.0 L 293.0,402.0 L 293.0,403.0 L 292.0,404.0 L 292.0,405.0 L 291.0,406.0 L 291.0,407.0 L 290.0,408.0 L 290.0,409.0 L 289.0,410.0 L 288.0,411.0 L 288.0,412.0 L 287.0,413.0 L 287.0,414.0 L 286.0,415.0 L 286.0,416.0 L 285.0,417.0 L 285.0,418.0 L 284.0,419.0 L 284.0,420.0 L 283.0,421.0 L 283.0,422.0 L 282.0,423.0 L 282.0,424.0 L 281.0,425.0 L 280.0,426.0 L 280.0,427.0 L 279.0,428.0 L 279.0,429.0 L 278.0,430.0 L 278.0,431.0 L 277.0,432.0 L 277.0,433.0 L 276.0,434.0 L 276.0,435.0 L 275.0,436.0 L 275.0,437.0 L 274.0,438.0 L 274.0,439.0 L 273.0,440.0 L 272.0,441.0 L 272.0,442.0 L 271.0,443.0 L 271.0,444.0 L 270.0,445.0 L 270.0,446.0 L 269.0,447.0 L 269.0,448.0 L 268.0,449.0 L 268.0,450.0 L 267.0,451.0 L 267.0,452.0 L 266.0,453.0 L 266.0,454.0 L 265.0,455.0 L 264.0,456.0 L 264.0,457.0 L 263.0,458.0 L 263.0,459.0 L 262.0,460.0 L 262.0,461.0 L 261.0,462.0 L 261.0,463.0 L 260.0,464.0 L 260.0,465.0 L 259.0,466.0 L 259.0,467.0 L 258.0,468.0 L 258.0,469.0 L 257.0,470.0 L 256.0,471.0 L 256.0,472.0 L 255.0,473.0 L 255.0,474.0 L 254.0,475.0 L 254.0,476.0 L 253.0,477.0 L 253.0,478.0 L 252.0,479.0 L 252.0,480.0 L 251.0,481.0 L 251.0,482.0 L 250.0,483.0 L 250.0,484.0 L 249.0,485.0 L 248.0,486.0 L 248.0,487.0 L 247.0,488.0 L 247.0,489.0 L 246.0,490.0 L 246.0,491.0 L 245.0,492.0 L 245.0,493.0 L 244.0,494.0 L 244.0,495.0 L 243.0,496.0 L 243.0,497.0 L 242.0,498.0 L 242.0,499.0 L 241.0,500.0 L 240.0,501.0 L 240.0,502.0 L 239.0,503.0 L 239.0,504.0 L 238.0,505.0 L 238.0,506.0 L 237.0,507.0 L 237.0,508.0 L 236.0,509.0 L 236.0,510.0 L 235.0,511.0 L 234.0,512.0 L 234.0,513.0 L 233.0,514.0 L 233.0,515.0 L 232.0,516.0 L 232.0,517.0 L 231.0,518.0 L 231.0,519.0 L 232.0,519.0 L 233.0,519.0 L 234.0,519.0 L 235.0,519.0 L 236.0,519.0 L 237.0,519.0 L 238.0,519.0 L 239.0,519.0 L 240.0,519.0 L 241.0,519.0 L 242.0,519.0 L 243.0,519.0 L 244.0,519.0 L 245.0,519.0 L 246.0,519.0 L 247.0,519.0 L 248.0,519.0 L 249.0,519.0 L 250.0,519.0 L 251.0,519.0 L 252.0,519.0 L 253.0,519.0 L 254.0,519.0 L 255.0,519.0 L 256.0,519.0 L 257.0,519.0 L 258.0,519.0 L 259.0,519.0 L 260.0,519.0 L 261.0,519.0 L 262.0,519.0 L 263.0,519.0 L 264.0,519.0 L 265.0,519.0 L 266.0,519.0 L 267.0,519.0 L 268.0,519.0 L 269.0,519.0 L 270.0,519.0 L 271.0,519.0 L 272.0,519.0 L 273.0,519.0 L 274.0,519.0 L 275.0,519.0 L 276.0,519.0 L 277.0,519.0 L 278.0,519.0 L 279.0,519.0 L 280.0,519.0 L 281.0,519.0 L 282.0,519.0 L 283.0,519.0 L 284.0,519.0 L 285.0,519.0 L 286.0,519.0 L 287.0,519.0 L 288.0,519.0 L 289.0,519.0 L 290.0,519.0 L 291.0,519.0 L 292.0,519.0 L 293.0,519.0 L 294.0,519.0 L 295.0,519.0 L 296.0,519.0 L 297.0,519.0 L 298.0,519.0 L 299.0,519.0 L 300.0,519.0 L 301.0,519.0 L 302.0,519.0 L 303.0,519.0 L 304.0,519.0 L 305.0,519.0 L 306.0,519.0 L 307.0,519.0 L 308.0,519.0 L 309.0,519.0 L 310.0,519.0 L 311.0,519.0 L 312.0,519.0 L 313.0,519.0 L 314.0,519.0 L 315.0,519.0 L 316.0,519.0 L 317.0,519.0 L 318.0,519.0 L 319.0,519.0 L 320.0,519.0 L 321.0,519.0 L 322.0,519.0 L 323.0,519.0 L 324.0,519.0 L 325.0,519.0 L 326.0,519.0 L 327.0,519.0 L 328.0,519.0 L 329.0,519.0 L 330.0,519.0 L 331.0,519.0 L 332.0,519.0 L 333.0,519.0 L 334.0,519.0 L 335.0,519.0 L 336.0,519.0 L 337.0,519.0 L 338.0,519.0 L 339.0,519.0 L 340.0,519.0 L 341.0,519.0 L 342.0,519.0 L 343.0,519.0 L 344.0,519.0 L 345.0,519.0 L 346.0,519.0 L 347.0,519.0 L 348.0,519.0 L 349.0,519.0 L 350.0,519.0 L 351.0,519.0 L 352.0,519.0 L 353.0,519.0 L 354.0,519.0 L 355.0,519.0 L 356.0,519.0 L 357.0,519.0 L 358.0,519.0 L 359.0,519.0 L 360.0,519.0 L 361.0,519.0 L 362.0,519.0 L 363.0,519.0 L 364.0,519.0 L 365.0,519.0 L 366.0,519.0 L 367.0,519.0 L 368.0,519.0 L 369.0,519.0 L 370.0,519.0 L 371.0,519.0 L 372.0,519.0 L 373.0,519.0 L 374.0,519.0 L 375.0,519.0 L 376.0,520.0 L 377.0,519.0 L 378.0,519.0 L 379.0,520.0 L 380.0,520.0 L 381.0,520.0 L 380.0,519.0 L 379.0,519.0 L 378.0,518.0 L 377.0,517.0 L 376.0,517.0 L 375.0,516.0 L 374.0,516.0 L 373.0,515.0 L 372.0,514.0 L 371.0,514.0 L 370.0,513.0 L 369.0,512.0 L 368.0,512.0 L 367.0,511.0 L 366.0,511.0 L 365.0,510.0 L 364.0,509.0 L 363.0,509.0 L 362.0,508.0 L 361.0,507.0 L 360.0,506.0 L 359.0,506.0 L 358.0,505.0 L 357.0,504.0 L 356.0,503.0 L 355.0,502.0 L 354.0,502.0 L 353.0,501.0 L 352.0,500.0 L 351.0,499.0 L 350.0,498.0 L 349.0,497.0 L 348.0,496.0 L 347.0,496.0 L 346.0,495.0 L 345.0,494.0 L 344.0,493.0 L 343.0,492.0 L 342.0,491.0 L 341.0,490.0 L 340.0,489.0 L 339.0,488.0 L 338.0,487.0 L 337.0,486.0 L 336.0,485.0 L 336.0,484.0 L 335.0,483.0 L 334.0,482.0 L 333.0,481.0 L 332.0,480.0 L 331.0,479.0 L 331.0,478.0 L 330.0,477.0 L 329.0,476.0 L 328.0,475.0 L 327.0,474.0 L 327.0,473.0 L 326.0,472.0 L 325.0,471.0 L 324.0,470.0 L 324.0,469.0 L 323.0,468.0 L 322.0,467.0 L 322.0,466.0 L 321.0,465.0 L 320.0,464.0 L 320.0,463.0 L 319.0,462.0 L 319.0,461.0 L 318.0,460.0 L 317.0,459.0 L 317.0,458.0 L 316.0,457.0 L 316.0,456.0 L 315.0,455.0 L 315.0,454.0 L 314.0,453.0 L 313.0,452.0 L 313.0,451.0 L 312.0,450.0 L 312.0,449.0 L 312.0,448.0 L 311.0,447.0 L 311.0,446.0 L 310.0,445.0 L 310.0,444.0 L 309.0,443.0 L 309.0,442.0 L 308.0,441.0 L 308.0,440.0 L 307.0,439.0 L 307.0,438.0 L 306.0,437.0 L 306.0,436.0 L 306.0,435.0 L 305.0,434.0 L 305.0,433.0 L 305.0,432.0 L 304.0,431.0 L 304.0,430.0 L 304.0,429.0 L 303.0,428.0 L 303.0,427.0 L 303.0,426.0 L 302.0,425.0 L 302.0,424.0 L 302.0,423.0 L 301.0,422.0 L 301.0,421.0 L 301.0,420.0 L 300.0,419.0 L 300.0,418.0 L 300.0,417.0 L 300.0,416.0 L 299.0,415.0 L 299.0,414.0 L 299.0,413.0 L 299.0,412.0 L 298.0,411.0 L 298.0,410.0 L 298.0,409.0 L 298.0,408.0 L 298.0,407.0 L 298.0,406.0 L 297.0,405.0 L 297.0,404.0 L 297.0,403.0 L 297.0,402.0 L 297.0,401.0 L 297.0,400.0 L 296.0,399.0 L 296.0,398.0 L 296.0,397.0 Z" fill="black" stroke="none" /><path d="M 666.0,357.0 L 666.0,358.0 L 666.0,359.0 L 666.0,360.0 L 666.0,361.0 L 666.0,362.0 L 666.0,363.0 L 666.0,364.0 L 666.0,365.0 L 666.0,366.0 L 666.0,367.0 L 666.0,368.0 L 666.0,369.0 L 666.0,370.0 L 666.0,371.0 L 666.0,372.0 L 666.0,373.0 L 666.0,374.0 L 666.0,375.0 L 666.0,376.0 L 666.0,377.0 L 666.0,378.0 L 666.0,379.0 L 665.0,380.0 L 665.0,381.0 L 665.0,382.0 L 665.0,383.0 L 665.0,384.0 L 665.0,385.0 L 665.0,386.0 L 664.0,387.0 L 664.0,388.0 L 664.0,389.0 L 664.0,390.0 L 664.0,391.0 L 664.0,392.0 L 664.0,393.0 L 663.0,394.0 L 663.0,395.0 L 663.0,396.0 L 663.0,397.0 L 662.0,398.0 L 662.0,399.0 L 662.0,400.0 L 662.0,401.0 L 662.0,402.0 L 661.0,403.0 L 661.0,404.0 L 661.0,405.0 L 660.0,406.0 L 660.0,407.0 L 660.0,408.0 L 660.0,409.0 L 659.0,410.0 L 659.0,411.0 L 659.0,412.0 L 658.0,413.0 L 658.0,414.0 L 658.0,415.0 L 657.0,416.0 L 657.0,417.0 L 656.0,418.0 L 656.0,419.0 L 656.0,420.0 L 655.0,421.0 L 655.0,422.0 L 655.0,423.0 L 654.0,424.0 L 654.0,425.0 L 653.0,426.0 L 653.0,427.0 L 652.0,428.0 L 652.0,429.0 L 651.0,430.0 L 651.0,431.0 L 650.0,432.0 L 650.0,433.0 L 650.0,434.0 L 649.0,435.0 L 648.0,436.0 L 648.0,437.0 L 647.0,438.0 L 647.0,439.0 L 646.0,440.0 L 646.0,441.0 L 645.0,442.0 L 644.0,443.0 L 644.0,444.0 L 643.0,445.0 L 643.0,446.0 L 642.0,447.0 L 641.0,448.0 L 641.0,449.0 L 640.0,450.0 L 639.0,451.0 L 639.0,452.0 L 638.0,453.0 L 637.0,454.0 L 636.0,455.0 L 636.0,456.0 L 635.0,457.0 L 634.0,458.0 L 634.0,459.0 L 634.0,460.0 L 635.0,461.0 L 635.0,462.0 L 636.0,463.0 L 636.0,464.0 L 637.0,465.0 L 637.0,466.0 L 638.0,467.0 L 638.0,468.0 L 639.0,469.0 L 640.0,470.0 L 640.0,471.0 L 641.0,472.0 L 641.0,473.0 L 642.0,474.0 L 642.0,475.0 L 643.0,476.0 L 643.0,477.0 L 644.0,478.0 L 644.0,479.0 L 645.0,480.0 L 646.0,481.0 L 646.0,482.0 L 647.0,483.0 L 647.0,484.0 L 648.0,485.0 L 648.0,486.0 L 649.0,487.0 L 650.0,488.0 L 650.0,489.0 L 651.0,490.0 L 651.0,491.0 L 652.0,492.0 L 652.0,493.0 L 653.0,494.0 L 653.0,495.0 L 654.0,496.0 L 654.0,497.0 L 655.0,498.0 L 655.0,499.0 L 656.0,500.0 L 656.0,501.0 L 657.0,502.0 L 658.0,503.0 L 658.0,504.0 L 659.0,505.0 L 659.0,506.0 L 660.0,507.0 L 660.0,508.0 L 661.0,509.0 L 662.0,510.0 L 662.0,511.0 L 663.0,512.0 L 663.0,513.0 L 664.0,514.0 L 664.0,515.0 L 665.0,516.0 L 666.0,517.0 L 666.0,518.0 L 666.0,519.0 L 667.0,519.0 L 668.0,519.0 L 669.0,519.0 L 670.0,519.0 L 671.0,519.0 L 672.0,519.0 L 673.0,519.0 L 674.0,519.0 L 675.0,519.0 L 676.0,519.0 L 677.0,519.0 L 678.0,519.0 L 679.0,519.0 L 680.0,519.0 L 681.0,519.0 L 682.0,519.0 L 683.0,519.0 L 684.0,519.0 L 685.0,519.0 L 686.0,519.0 L 687.0,519.0 L 688.0,519.0 L 689.0,519.0 L 690.0,519.0 L 691.0,519.0 L 692.0,519.0 L 693.0,519.0 L 694.0,519.0 L 695.0,519.0 L 696.0,519.0 L 697.0,519.0 L 698.0,519.0 L 699.0,519.0 L 700.0,519.0 L 701.0,519.0 L 702.0,519.0 L 703.0,519.0 L 704.0,519.0 L 705.0,519.0 L 706.0,519.0 L 707.0,519.0 L 708.0,519.0 L 709.0,519.0 L 710.0,519.0 L 711.0,519.0 L 712.0,519.0 L 713.0,519.0 L 714.0,519.0 L 715.0,519.0 L 716.0,519.0 L 717.0,519.0 L 718.0,519.0 L 719.0,519.0 L 720.0,519.0 L 721.0,519.0 L 722.0,519.0 L 723.0,519.0 L 724.0,519.0 L 725.0,519.0 L 726.0,519.0 L 727.0,519.0 L 728.0,519.0 L 729.0,519.0 L 730.0,519.0 L 731.0,519.0 L 732.0,519.0 L 733.0,519.0 L 734.0,519.0 L 735.0,519.0 L 736.0,519.0 L 737.0,519.0 L 738.0,519.0 L 739.0,519.0 L 740.0,519.0 L 741.0,519.0 L 742.0,519.0 L 743.0,519.0 L 744.0,519.0 L 745.0,519.0 L 746.0,519.0 L 747.0,519.0 L 748.0,519.0 L 749.0,519.0 L 750.0,519.0 L 751.0,519.0 L 752.0,519.0 L 753.0,519.0 L 754.0,519.0 L 755.0,519.0 L 756.0,519.0 L 757.0,519.0 L 758.0,519.0 L 759.0,519.0 L 760.0,519.0 L 761.0,519.0 L 762.0,519.0 L 763.0,519.0 L 764.0,519.0 L 765.0,519.0 L 766.0,519.0 L 767.0,519.0 L 768.0,519.0 L 769.0,519.0 L 768.0,518.0 L 767.0,517.0 L 767.0,516.0 L 766.0,515.0 L 765.0,514.0 L 765.0,513.0 L 764.0,512.0 L 763.0,511.0 L 763.0,510.0 L 762.0,509.0 L 762.0,508.0 L 761.0,507.0 L 760.0,506.0 L 760.0,505.0 L 759.0,504.0 L 758.0,503.0 L 758.0,502.0 L 757.0,501.0 L 757.0,500.0 L 756.0,499.0 L 755.0,498.0 L 755.0,497.0 L 754.0,496.0 L 753.0,495.0 L 753.0,494.0 L 752.0,493.0 L 751.0,492.0 L 751.0,491.0 L 750.0,490.0 L 749.0,489.0 L 749.0,488.0 L 748.0,487.0 L 748.0,486.0 L 747.0,485.0 L 746.0,484.0 L 746.0,483.0 L 745.0,482.0 L 744.0,481.0 L 744.0,480.0 L 743.0,479.0 L 743.0,478.0 L 742.0,477.0 L 741.0,476.0 L 741.0,475.0 L 740.0,474.0 L 739.0,473.0 L 739.0,472.0 L 738.0,471.0 L 738.0,470.0 L 737.0,469.0 L 736.0,468.0 L 736.0,467.0 L 735.0,466.0 L 734.0,465.0 L 734.0,464.0 L 733.0,463.0 L 732.0,462.0 L 732.0,461.0 L 731.0,460.0 L 731.0,459.0 L 730.0,458.0 L 729.0,457.0 L 729.0,456.0 L 728.0,455.0 L 727.0,454.0 L 727.0,453.0 L 726.0,452.0 L 725.0,451.0 L 725.0,450.0 L 724.0,449.0 L 724.0,448.0 L 723.0,447.0 L 722.0,446.0 L 722.0,445.0 L 721.0,444.0 L 720.0,443.0 L 720.0,442.0 L 719.0,441.0 L 719.0,440.0 L 718.0,439.0 L 717.0,438.0 L 717.0,437.0 L 716.0,436.0 L 715.0,435.0 L 715.0,434.0 L 714.0,433.0 L 713.0,432.0 L 713.0,431.0 L 712.0,430.0 L 711.0,429.0 L 711.0,428.0 L 710.0,427.0 L 710.0,426.0 L 709.0,425.0 L 708.0,424.0 L 708.0,423.0 L 707.0,422.0 L 706.0,421.0 L 706.0,420.0 L 705.0,419.0 L 704.0,418.0 L 704.0,417.0 L 703.0,416.0 L 703.0,415.0 L 702.0,414.0 L 701.0,413.0 L 701.0,412.0 L 700.0,411.0 L 699.0,410.0 L 699.0,409.0 L 698.0,408.0 L 698.0,407.0 L 697.0,406.0 L 696.0,405.0 L 696.0,404.0 L 695.0,403.0 L 694.0,402.0 L 694.0,401.0 L 693.0,400.0 L 692.0,399.0 L 692.0,398.0 L 691.0,397.0 L 691.0,396.0 L 690.0,395.0 L 689.0,394.0 L 689.0,393.0 L 688.0,392.0 L 687.0,391.0 L 687.0,390.0 L 686.0,389.0 L 685.0,388.0 L 685.0,387.0 L 684.0,386.0 L 684.0,385.0 L 683.0,384.0 L 682.0,383.0 L 682.0,382.0 L 681.0,381.0 L 680.0,380.0 L 680.0,379.0 L 679.0,378.0 L 679.0,377.0 L 678.0,376.0 L 677.0,375.0 L 677.0,374.0 L 676.0,373.0 L 675.0,372.0 L 675.0,371.0 L 674.0,370.0 L 673.0,369.0 L 673.0,368.0 L 672.0,367.0 L 672.0,366.0 L 671.0,365.0 L 670.0,364.0 L 670.0,363.0 L 669.0,362.0 L 668.0,361.0 L 668.0,360.0 L 667.0,359.0 L 667.0,358.0 Z" fill="black" stroke="none" /><path d="M 466.0,288.0 L 465.0,289.0 L 464.0,289.0 L 463.0,289.0 L 462.0,289.0 L 461.0,289.0 L 460.0,290.0 L 459.0,290.0 L 458.0,290.0 L 457.0,290.0 L 456.0,291.0 L 455.0,291.0 L 454.0,291.0 L 453.0,292.0 L 452.0,292.0 L 451.0,293.0 L 450.0,293.0 L 449.0,293.0 L 448.0,294.0 L 447.0,294.0 L 446.0,294.0 L 445.0,295.0 L 444.0,296.0 L 443.0,296.0 L 442.0,296.0 L 441.0,297.0 L 440.0,298.0 L 439.0,298.0 L 438.0,299.0 L 437.0,300.0 L 436.0,300.0 L 435.0,301.0 L 434.0,302.0 L 433.0,303.0 L 432.0,303.0 L 431.0,304.0 L 430.0,305.0 L 429.0,306.0 L 428.0,307.0 L 427.0,308.0 L 426.0,309.0 L 425.0,310.0 L 424.0,311.0 L 423.0,312.0 L 422.0,313.0 L 421.0,314.0 L 421.0,315.0 L 420.0,316.0 L 419.0,317.0 L 418.0,318.0 L 418.0,319.0 L 417.0,320.0 L 416.0,321.0 L 416.0,322.0 L 415.0,323.0 L 415.0,324.0 L 414.0,325.0 L 413.0,326.0 L 413.0,327.0 L 412.0,328.0 L 412.0,329.0 L 412.0,330.0 L 411.0,331.0 L 411.0,332.0 L 410.0,333.0 L 410.0,334.0 L 410.0,335.0 L 409.0,336.0 L 409.0,337.0 L 409.0,338.0 L 408.0,339.0 L 408.0,340.0 L 408.0,341.0 L 407.0,342.0 L 407.0,343.0 L 407.0,344.0 L 407.0,345.0 L 407.0,346.0 L 407.0,347.0 L 406.0,348.0 L 406.0,349.0 L 406.0,350.0 L 406.0,351.0 L 406.0,352.0 L 406.0,353.0 L 406.0,354.0 L 406.0,355.0 L 406.0,356.0 L 406.0,357.0 L 406.0,358.0 L 406.0,359.0 L 406.0,360.0 L 406.0,361.0 L 406.0,362.0 L 406.0,363.0 L 406.0,364.0 L 406.0,365.0 L 406.0,366.0 L 406.0,367.0 L 406.0,368.0 L 406.0,369.0 L 406.0,370.0 L 407.0,371.0 L 407.0,372.0 L 407.0,373.0 L 407.0,374.0 L 407.0,375.0 L 408.0,376.0 L 408.0,377.0 L 408.0,378.0 L 408.0,379.0 L 409.0,380.0 L 409.0,381.0 L 409.0,382.0 L 410.0,383.0 L 410.0,384.0 L 410.0,385.0 L 411.0,386.0 L 411.0,387.0 L 412.0,388.0 L 412.0,389.0 L 413.0,390.0 L 413.0,391.0 L 414.0,392.0 L 414.0,393.0 L 415.0,394.0 L 415.0,395.0 L 416.0,396.0 L 416.0,397.0 L 417.0,398.0 L 418.0,399.0 L 418.0,400.0 L 419.0,401.0 L 420.0,402.0 L 421.0,403.0 L 422.0,404.0 L 422.0,405.0 L 423.0,406.0 L 424.0,407.0 L 425.0,408.0 L 426.0,409.0 L 427.0,410.0 L 428.0,411.0 L 429.0,412.0 L 430.0,413.0 L 431.0,414.0 L 432.0,415.0 L 433.0,415.0 L 434.0,416.0 L 435.0,417.0 L 436.0,417.0 L 437.0,418.0 L 438.0,419.0 L 439.0,419.0 L 440.0,420.0 L 441.0,420.0 L 442.0,421.0 L 443.0,422.0 L 444.0,422.0 L 445.0,423.0 L 446.0,423.0 L 447.0,424.0 L 448.0,424.0 L 449.0,424.0 L 450.0,425.0 L 451.0,425.0 L 452.0,426.0 L 453.0,426.0 L 454.0,426.0 L 455.0,427.0 L 456.0,427.0 L 457.0,427.0 L 458.0,428.0 L 459.0,428.0 L 460.0,428.0 L 461.0,428.0 L 462.0,429.0 L 463.0,429.0 L 464.0,429.0 L 465.0,429.0 L 466.0,429.0 L 467.0,429.0 L 468.0,430.0 L 469.0,430.0 L 470.0,430.0 L 471.0,430.0 L 472.0,430.0 L 473.0,430.0 L 474.0,430.0 L 475.0,430.0 L 476.0,430.0 L 477.0,430.0 L 478.0,430.0 L 479.0,430.0 L 480.0,430.0 L 481.0,430.0 L 482.0,430.0 L 483.0,430.0 L 484.0,430.0 L 485.0,430.0 L 486.0,430.0 L 487.0,429.0 L 488.0,429.0 L 489.0,429.0 L 490.0,429.0 L 491.0,429.0 L 492.0,428.0 L 493.0,428.0 L 494.0,428.0 L 495.0,428.0 L 496.0,427.0 L 497.0,427.0 L 498.0,427.0 L 499.0,427.0 L 500.0,426.0 L 501.0,426.0 L 502.0,425.0 L 503.0,425.0 L 504.0,425.0 L 505.0,424.0 L 506.0,424.0 L 507.0,423.0 L 508.0,423.0 L 509.0,423.0 L 510.0,422.0 L 511.0,421.0 L 512.0,421.0 L 513.0,420.0 L 514.0,420.0 L 515.0,419.0 L 516.0,418.0 L 517.0,418.0 L 518.0,417.0 L 519.0,416.0 L 520.0,415.0 L 521.0,415.0 L 522.0,414.0 L 523.0,413.0 L 524.0,412.0 L 525.0,411.0 L 526.0,410.0 L 527.0,410.0 L 527.0,409.0 L 528.0,408.0 L 529.0,407.0 L 530.0,406.0 L 531.0,405.0 L 532.0,404.0 L 533.0,403.0 L 533.0,402.0 L 534.0,401.0 L 535.0,400.0 L 536.0,399.0 L 536.0,398.0 L 537.0,397.0 L 537.0,396.0 L 538.0,395.0 L 538.0,394.0 L 539.0,393.0 L 540.0,392.0 L 540.0,391.0 L 541.0,390.0 L 541.0,389.0 L 542.0,388.0 L 542.0,387.0 L 543.0,386.0 L 543.0,385.0 L 543.0,384.0 L 544.0,383.0 L 544.0,382.0 L 544.0,381.0 L 544.0,380.0 L 545.0,379.0 L 545.0,378.0 L 545.0,377.0 L 546.0,376.0 L 546.0,375.0 L 546.0,374.0 L 546.0,373.0 L 546.0,372.0 L 547.0,371.0 L 547.0,370.0 L 547.0,369.0 L 547.0,368.0 L 547.0,367.0 L 547.0,366.0 L 547.0,365.0 L 547.0,364.0 L 548.0,363.0 L 548.0,362.0 L 548.0,361.0 L 548.0,360.0 L 548.0,359.0 L 548.0,358.0 L 548.0,357.0 L 548.0,356.0 L 548.0,355.0 L 547.0,354.0 L 547.0,353.0 L 547.0,352.0 L 547.0,351.0 L 547.0,350.0 L 547.0,349.0 L 547.0,348.0 L 547.0,347.0 L 546.0,346.0 L 546.0,345.0 L 546.0,344.0 L 546.0,343.0 L 546.0,342.0 L 546.0,341.0 L 545.0,340.0 L 545.0,339.0 L 545.0,338.0 L 544.0,337.0 L 544.0,336.0 L 544.0,335.0 L 543.0,334.0 L 543.0,333.0 L 543.0,332.0 L 542.0,331.0 L 541.0,330.0 L 541.0,329.0 L 541.0,328.0 L 540.0,327.0 L 540.0,326.0 L 539.0,325.0 L 539.0,324.0 L 538.0,323.0 L 538.0,322.0 L 537.0,321.0 L 536.0,320.0 L 536.0,319.0 L 535.0,318.0 L 534.0,317.0 L 533.0,316.0 L 533.0,315.0 L 532.0,314.0 L 531.0,313.0 L 531.0,312.0 L 530.0,312.0 L 529.0,311.0 L 528.0,310.0 L 528.0,309.0 L 527.0,308.0 L 526.0,308.0 L 525.0,307.0 L 524.0,306.0 L 523.0,305.0 L 522.0,304.0 L 521.0,303.0 L 520.0,302.0 L 519.0,301.0 L 518.0,301.0 L 517.0,300.0 L 516.0,299.0 L 515.0,299.0 L 514.0,298.0 L 513.0,298.0 L 512.0,297.0 L 511.0,296.0 L 510.0,296.0 L 509.0,295.0 L 508.0,295.0 L 507.0,295.0 L 506.0,294.0 L 505.0,294.0 L 504.0,293.0 L 503.0,293.0 L 502.0,292.0 L 501.0,292.0 L 500.0,292.0 L 499.0,291.0 L 498.0,291.0 L 497.0,291.0 L 496.0,290.0 L 495.0,290.0 L 494.0,290.0 L 493.0,290.0 L 492.0,289.0 L 491.0,289.0 L 490.0,289.0 L 489.0,289.0 L 488.0,289.0 L 487.0,288.0 L 486.0,288.0 L 485.0,288.0 L 484.0,288.0 L 483.0,288.0 L 482.0,288.0 L 481.0,288.0 L 480.0,288.0 L 479.0,288.0 L 478.0,288.0 L 477.0,288.0 L 476.0,288.0 L 475.0,288.0 L 474.0,288.0 L 473.0,288.0 L 472.0,288.0 L 471.0,288.0 L 470.0,288.0 L 469.0,288.0 L 468.0,288.0 L 467.0,288.0 Z" fill="black" stroke="none" /><path d="M 441.0,194.0 L 440.0,195.0 L 439.0,195.0 L 438.0,195.0 L 437.0,195.0 L 436.0,196.0 L 435.0,196.0 L 434.0,196.0 L 433.0,196.0 L 432.0,197.0 L 431.0,197.0 L 430.0,197.0 L 429.0,198.0 L 428.0,198.0 L 427.0,198.0 L 426.0,199.0 L 425.0,199.0 L 424.0,199.0 L 423.0,200.0 L 422.0,200.0 L 421.0,200.0 L 420.0,201.0 L 419.0,201.0 L 418.0,202.0 L 417.0,202.0 L 416.0,202.0 L 415.0,203.0 L 414.0,203.0 L 413.0,204.0 L 412.0,204.0 L 411.0,204.0 L 410.0,205.0 L 409.0,205.0 L 408.0,206.0 L 407.0,206.0 L 406.0,207.0 L 405.0,207.0 L 404.0,208.0 L 403.0,208.0 L 402.0,209.0 L 401.0,209.0 L 400.0,210.0 L 399.0,210.0 L 398.0,211.0 L 397.0,211.0 L 396.0,212.0 L 395.0,213.0 L 394.0,213.0 L 393.0,214.0 L 392.0,214.0 L 391.0,215.0 L 390.0,216.0 L 389.0,216.0 L 388.0,217.0 L 387.0,218.0 L 386.0,218.0 L 385.0,219.0 L 384.0,219.0 L 383.0,220.0 L 382.0,221.0 L 381.0,221.0 L 380.0,222.0 L 379.0,223.0 L 378.0,224.0 L 377.0,224.0 L 376.0,225.0 L 375.0,226.0 L 374.0,227.0 L 373.0,227.0 L 372.0,228.0 L 371.0,229.0 L 370.0,230.0 L 369.0,231.0 L 368.0,231.0 L 367.0,232.0 L 366.0,233.0 L 365.0,234.0 L 364.0,235.0 L 363.0,236.0 L 362.0,237.0 L 361.0,238.0 L 360.0,238.0 L 360.0,239.0 L 359.0,240.0 L 358.0,240.0 L 358.0,241.0 L 357.0,242.0 L 356.0,243.0 L 355.0,244.0 L 354.0,245.0 L 353.0,246.0 L 352.0,247.0 L 351.0,248.0 L 350.0,249.0 L 349.0,250.0 L 348.0,251.0 L 348.0,252.0 L 347.0,253.0 L 346.0,254.0 L 345.0,255.0 L 344.0,256.0 L 344.0,257.0 L 343.0,258.0 L 342.0,259.0 L 341.0,260.0 L 341.0,261.0 L 340.0,262.0 L 339.0,263.0 L 338.0,264.0 L 338.0,265.0 L 337.0,266.0 L 336.0,267.0 L 336.0,268.0 L 335.0,269.0 L 334.0,270.0 L 334.0,271.0 L 333.0,272.0 L 333.0,273.0 L 332.0,274.0 L 331.0,275.0 L 331.0,276.0 L 330.0,277.0 L 330.0,278.0 L 329.0,279.0 L 328.0,280.0 L 328.0,281.0 L 327.0,282.0 L 327.0,283.0 L 326.0,284.0 L 326.0,285.0 L 325.0,286.0 L 325.0,287.0 L 324.0,288.0 L 324.0,289.0 L 323.0,290.0 L 323.0,291.0 L 322.0,292.0 L 322.0,293.0 L 321.0,294.0 L 321.0,295.0 L 321.0,296.0 L 320.0,297.0 L 320.0,298.0 L 319.0,299.0 L 319.0,300.0 L 319.0,301.0 L 318.0,302.0 L 318.0,303.0 L 317.0,304.0 L 317.0,305.0 L 317.0,306.0 L 317.0,307.0 L 316.0,308.0 L 316.0,309.0 L 316.0,310.0 L 315.0,311.0 L 315.0,312.0 L 315.0,313.0 L 314.0,314.0 L 314.0,315.0 L 314.0,316.0 L 314.0,317.0 L 313.0,318.0 L 313.0,319.0 L 313.0,320.0 L 313.0,321.0 L 312.0,322.0 L 312.0,323.0 L 312.0,324.0 L 312.0,325.0 L 311.0,326.0 L 311.0,327.0 L 311.0,328.0 L 311.0,329.0 L 311.0,330.0 L 310.0,331.0 L 310.0,332.0 L 310.0,333.0 L 310.0,334.0 L 310.0,335.0 L 310.0,336.0 L 310.0,337.0 L 309.0,338.0 L 309.0,339.0 L 309.0,340.0 L 309.0,341.0 L 309.0,342.0 L 309.0,343.0 L 309.0,344.0 L 309.0,345.0 L 309.0,346.0 L 308.0,347.0 L 308.0,348.0 L 308.0,349.0 L 308.0,350.0 L 308.0,351.0 L 308.0,352.0 L 308.0,353.0 L 308.0,354.0 L 308.0,355.0 L 308.0,356.0 L 308.0,357.0 L 308.0,358.0 L 308.0,359.0 L 308.0,360.0 L 308.0,361.0 L 308.0,362.0 L 308.0,363.0 L 308.0,364.0 L 308.0,365.0 L 308.0,366.0 L 308.0,367.0 L 308.0,368.0 L 308.0,369.0 L 308.0,370.0 L 309.0,371.0 L 309.0,372.0 L 309.0,373.0 L 309.0,374.0 L 309.0,375.0 L 309.0,376.0 L 309.0,377.0 L 309.0,378.0 L 309.0,379.0 L 310.0,380.0 L 310.0,381.0 L 310.0,382.0 L 310.0,383.0 L 310.0,384.0 L 310.0,385.0 L 310.0,386.0 L 311.0,387.0 L 311.0,388.0 L 311.0,389.0 L 311.0,390.0 L 311.0,391.0 L 312.0,392.0 L 312.0,393.0 L 312.0,394.0 L 312.0,395.0 L 312.0,396.0 L 313.0,397.0 L 313.0,398.0 L 313.0,399.0 L 314.0,400.0 L 314.0,401.0 L 314.0,402.0 L 314.0,403.0 L 315.0,404.0 L 315.0,405.0 L 315.0,406.0 L 315.0,407.0 L 316.0,408.0 L 316.0,409.0 L 317.0,410.0 L 317.0,411.0 L 317.0,412.0 L 318.0,413.0 L 318.0,414.0 L 318.0,415.0 L 319.0,416.0 L 319.0,417.0 L 319.0,418.0 L 320.0,419.0 L 320.0,420.0 L 321.0,421.0 L 321.0,422.0 L 321.0,423.0 L 322.0,424.0 L 322.0,425.0 L 323.0,426.0 L 323.0,427.0 L 324.0,428.0 L 324.0,429.0 L 325.0,430.0 L 325.0,431.0 L 326.0,432.0 L 326.0,433.0 L 327.0,434.0 L 327.0,435.0 L 328.0,436.0 L 328.0,437.0 L 329.0,438.0 L 329.0,439.0 L 330.0,440.0 L 330.0,441.0 L 331.0,442.0 L 332.0,443.0 L 332.0,444.0 L 333.0,445.0 L 334.0,446.0 L 334.0,447.0 L 335.0,448.0 L 335.0,449.0 L 336.0,450.0 L 337.0,451.0 L 337.0,452.0 L 338.0,453.0 L 339.0,454.0 L 339.0,455.0 L 340.0,456.0 L 341.0,457.0 L 342.0,458.0 L 342.0,459.0 L 343.0,460.0 L 344.0,461.0 L 345.0,462.0 L 345.0,463.0 L 346.0,464.0 L 347.0,465.0 L 348.0,466.0 L 349.0,467.0 L 350.0,468.0 L 351.0,469.0 L 352.0,470.0 L 352.0,471.0 L 353.0,472.0 L 354.0,473.0 L 355.0,474.0 L 356.0,475.0 L 357.0,476.0 L 358.0,477.0 L 359.0,478.0 L 360.0,479.0 L 361.0,480.0 L 362.0,481.0 L 363.0,482.0 L 364.0,483.0 L 365.0,483.0 L 366.0,484.0 L 367.0,485.0 L 368.0,486.0 L 369.0,487.0 L 370.0,488.0 L 371.0,488.0 L 372.0,489.0 L 373.0,490.0 L 374.0,491.0 L 375.0,492.0 L 376.0,492.0 L 377.0,493.0 L 378.0,494.0 L 379.0,495.0 L 380.0,495.0 L 381.0,496.0 L 382.0,497.0 L 383.0,497.0 L 384.0,498.0 L 385.0,499.0 L 386.0,499.0 L 387.0,500.0 L 388.0,501.0 L 389.0,501.0 L 390.0,502.0 L 391.0,502.0 L 392.0,503.0 L 393.0,504.0 L 394.0,504.0 L 395.0,505.0 L 396.0,505.0 L 397.0,506.0 L 398.0,506.0 L 399.0,507.0 L 400.0,508.0 L 401.0,508.0 L 402.0,508.0 L 403.0,509.0 L 404.0,509.0 L 405.0,510.0 L 406.0,510.0 L 407.0,511.0 L 408.0,511.0 L 409.0,512.0 L 410.0,512.0 L 411.0,513.0 L 412.0,513.0 L 413.0,513.0 L 414.0,514.0 L 415.0,514.0 L 416.0,515.0 L 417.0,515.0 L 418.0,515.0 L 419.0,516.0 L 420.0,516.0 L 421.0,516.0 L 422.0,517.0 L 423.0,517.0 L 424.0,518.0 L 425.0,518.0 L 426.0,518.0 L 427.0,519.0 L 428.0,519.0 L 429.0,519.0 L 430.0,519.0 L 431.0,520.0 L 432.0,520.0 L 433.0,520.0 L 434.0,520.0 L 435.0,521.0 L 436.0,521.0 L 437.0,521.0 L 438.0,521.0 L 439.0,522.0 L 440.0,522.0 L 441.0,522.0 L 442.0,522.0 L 443.0,522.0 L 444.0,523.0 L 445.0,523.0 L 446.0,523.0 L 447.0,523.0 L 448.0,523.0 L 449.0,524.0 L 450.0,524.0 L 451.0,524.0 L 452.0,524.0 L 453.0,524.0 L 454.0,524.0 L 455.0,524.0 L 456.0,525.0 L 457.0,525.0 L 458.0,525.0 L 459.0,525.0 L 460.0,525.0 L 461.0,525.0 L 462.0,525.0 L 463.0,525.0 L 464.0,525.0 L 465.0,525.0 L 466.0,525.0 L 467.0,525.0 L 468.0,525.0 L 469.0,525.0 L 470.0,526.0 L 471.0,526.0 L 472.0,526.0 L 473.0,526.0 L 474.0,526.0 L 475.0,526.0 L 476.0,526.0 L 477.0,526.0 L 478.0,526.0 L 479.0,526.0 L 480.0,526.0 L 481.0,526.0 L 482.0,525.0 L 483.0,525.0 L 484.0,525.0 L 485.0,525.0 L 486.0,525.0 L 487.0,525.0 L 488.0,525.0 L 489.0,525.0 L 490.0,525.0 L 491.0,525.0 L 492.0,525.0 L 493.0,525.0 L 494.0,525.0 L 495.0,525.0 L 496.0,524.0 L 497.0,524.0 L 498.0,524.0 L 499.0,524.0 L 500.0,524.0 L 501.0,524.0 L 502.0,524.0 L 503.0,523.0 L 504.0,523.0 L 505.0,523.0 L 506.0,523.0 L 507.0,523.0 L 508.0,522.0 L 509.0,522.0 L 510.0,522.0 L 511.0,522.0 L 512.0,522.0 L 513.0,521.0 L 514.0,521.0 L 515.0,521.0 L 516.0,521.0 L 517.0,520.0 L 518.0,520.0 L 519.0,520.0 L 520.0,520.0 L 521.0,519.0 L 522.0,519.0 L 523.0,519.0 L 524.0,519.0 L 525.0,518.0 L 526.0,518.0 L 527.0,518.0 L 528.0,517.0 L 529.0,517.0 L 530.0,517.0 L 531.0,516.0 L 532.0,516.0 L 533.0,515.0 L 534.0,515.0 L 535.0,515.0 L 536.0,514.0 L 537.0,514.0 L 538.0,514.0 L 539.0,513.0 L 540.0,513.0 L 541.0,512.0 L 542.0,512.0 L 543.0,512.0 L 544.0,511.0 L 545.0,511.0 L 546.0,510.0 L 547.0,510.0 L 548.0,509.0 L 549.0,509.0 L 550.0,508.0 L 551.0,508.0 L 552.0,507.0 L 553.0,507.0 L 554.0,506.0 L 555.0,506.0 L 556.0,505.0 L 557.0,504.0 L 558.0,504.0 L 559.0,503.0 L 560.0,503.0 L 561.0,502.0 L 562.0,502.0 L 563.0,501.0 L 564.0,500.0 L 565.0,500.0 L 566.0,499.0 L 567.0,499.0 L 568.0,498.0 L 569.0,497.0 L 570.0,496.0 L 571.0,496.0 L 572.0,495.0 L 573.0,494.0 L 574.0,494.0 L 575.0,493.0 L 576.0,492.0 L 577.0,491.0 L 578.0,490.0 L 579.0,490.0 L 580.0,489.0 L 581.0,488.0 L 582.0,487.0 L 583.0,487.0 L 584.0,486.0 L 585.0,485.0 L 586.0,484.0 L 587.0,483.0 L 588.0,482.0 L 589.0,481.0 L 590.0,480.0 L 591.0,479.0 L 592.0,478.0 L 593.0,477.0 L 594.0,476.0 L 595.0,475.0 L 596.0,474.0 L 597.0,473.0 L 598.0,472.0 L 599.0,471.0 L 600.0,470.0 L 601.0,469.0 L 602.0,468.0 L 603.0,467.0 L 603.0,466.0 L 604.0,465.0 L 605.0,464.0 L 606.0,463.0 L 607.0,462.0 L 607.0,461.0 L 608.0,460.0 L 609.0,459.0 L 610.0,458.0 L 611.0,457.0 L 611.0,456.0 L 612.0,455.0 L 613.0,454.0 L 613.0,453.0 L 614.0,452.0 L 615.0,451.0 L 615.0,450.0 L 616.0,449.0 L 616.0,448.0 L 617.0,447.0 L 618.0,446.0 L 618.0,445.0 L 619.0,444.0 L 620.0,443.0 L 620.0,442.0 L 621.0,441.0 L 621.0,440.0 L 622.0,439.0 L 622.0,438.0 L 623.0,437.0 L 624.0,436.0 L 624.0,435.0 L 625.0,434.0 L 625.0,433.0 L 626.0,432.0 L 626.0,431.0 L 626.0,430.0 L 627.0,429.0 L 627.0,428.0 L 628.0,427.0 L 628.0,426.0 L 629.0,425.0 L 629.0,424.0 L 630.0,423.0 L 630.0,422.0 L 631.0,421.0 L 631.0,420.0 L 631.0,419.0 L 632.0,418.0 L 632.0,417.0 L 632.0,416.0 L 633.0,415.0 L 633.0,414.0 L 633.0,413.0 L 634.0,412.0 L 634.0,411.0 L 634.0,410.0 L 635.0,409.0 L 635.0,408.0 L 636.0,407.0 L 636.0,406.0 L 636.0,405.0 L 636.0,404.0 L 637.0,403.0 L 637.0,402.0 L 637.0,401.0 L 637.0,400.0 L 638.0,399.0 L 638.0,398.0 L 638.0,397.0 L 638.0,396.0 L 639.0,395.0 L 639.0,394.0 L 639.0,393.0 L 639.0,392.0 L 639.0,391.0 L 639.0,390.0 L 640.0,389.0 L 640.0,388.0 L 640.0,387.0 L 640.0,386.0 L 640.0,385.0 L 641.0,384.0 L 641.0,383.0 L 641.0,382.0 L 641.0,381.0 L 641.0,380.0 L 641.0,379.0 L 641.0,378.0 L 642.0,377.0 L 642.0,376.0 L 642.0,375.0 L 642.0,374.0 L 642.0,373.0 L 642.0,372.0 L 642.0,371.0 L 642.0,370.0 L 642.0,369.0 L 642.0,368.0 L 642.0,367.0 L 642.0,366.0 L 642.0,365.0 L 642.0,364.0 L 643.0,363.0 L 643.0,362.0 L 643.0,361.0 L 643.0,360.0 L 643.0,359.0 L 643.0,358.0 L 643.0,357.0 L 643.0,356.0 L 643.0,355.0 L 643.0,354.0 L 643.0,353.0 L 643.0,352.0 L 642.0,351.0 L 642.0,350.0 L 642.0,349.0 L 642.0,348.0 L 642.0,347.0 L 642.0,346.0 L 642.0,345.0 L 642.0,344.0 L 642.0,343.0 L 642.0,342.0 L 642.0,341.0 L 642.0,340.0 L 641.0,339.0 L 641.0,338.0 L 641.0,337.0 L 641.0,336.0 L 641.0,335.0 L 641.0,334.0 L 641.0,333.0 L 640.0,332.0 L 640.0,331.0 L 640.0,330.0 L 640.0,329.0 L 640.0,328.0 L 640.0,327.0 L 639.0,326.0 L 639.0,325.0 L 639.0,324.0 L 639.0,323.0 L 639.0,322.0 L 638.0,321.0 L 638.0,320.0 L 638.0,319.0 L 638.0,318.0 L 637.0,317.0 L 637.0,316.0 L 637.0,315.0 L 637.0,314.0 L 636.0,313.0 L 636.0,312.0 L 636.0,311.0 L 636.0,310.0 L 635.0,309.0 L 635.0,308.0 L 635.0,307.0 L 634.0,306.0 L 634.0,305.0 L 634.0,304.0 L 633.0,303.0 L 633.0,302.0 L 632.0,301.0 L 632.0,300.0 L 632.0,299.0 L 631.0,298.0 L 631.0,297.0 L 631.0,296.0 L 630.0,295.0 L 630.0,294.0 L 629.0,293.0 L 629.0,292.0 L 629.0,291.0 L 628.0,290.0 L 628.0,289.0 L 627.0,288.0 L 627.0,287.0 L 626.0,286.0 L 626.0,285.0 L 625.0,284.0 L 625.0,283.0 L 624.0,282.0 L 624.0,281.0 L 623.0,280.0 L 623.0,279.0 L 622.0,278.0 L 622.0,277.0 L 621.0,276.0 L 620.0,275.0 L 620.0,274.0 L 619.0,273.0 L 619.0,272.0 L 618.0,271.0 L 618.0,270.0 L 617.0,269.0 L 616.0,268.0 L 616.0,267.0 L 615.0,266.0 L 614.0,265.0 L 614.0,264.0 L 613.0,263.0 L 612.0,262.0 L 611.0,261.0 L 611.0,260.0 L 610.0,259.0 L 609.0,258.0 L 609.0,257.0 L 608.0,256.0 L 607.0,255.0 L 606.0,254.0 L 605.0,253.0 L 605.0,252.0 L 604.0,251.0 L 603.0,250.0 L 602.0,249.0 L 601.0,248.0 L 600.0,247.0 L 599.0,246.0 L 599.0,245.0 L 598.0,244.0 L 597.0,243.0 L 596.0,242.0 L 595.0,241.0 L 594.0,240.0 L 593.0,239.0 L 592.0,238.0 L 591.0,237.0 L 590.0,236.0 L 589.0,235.0 L 588.0,234.0 L 587.0,234.0 L 586.0,233.0 L 585.0,232.0 L 584.0,233.0 L 584.0,234.0 L 583.0,235.0 L 582.0,236.0 L 581.0,237.0 L 580.0,238.0 L 580.0,239.0 L 579.0,240.0 L 578.0,241.0 L 578.0,242.0 L 577.0,243.0 L 576.0,244.0 L 576.0,245.0 L 575.0,246.0 L 574.0,247.0 L 573.0,248.0 L 573.0,249.0 L 572.0,250.0 L 571.0,251.0 L 570.0,252.0 L 570.0,253.0 L 569.0,254.0 L 568.0,255.0 L 568.0,256.0 L 567.0,257.0 L 566.0,258.0 L 565.0,259.0 L 565.0,260.0 L 564.0,261.0 L 563.0,262.0 L 563.0,263.0 L 562.0,264.0 L 561.0,265.0 L 560.0,266.0 L 560.0,267.0 L 559.0,268.0 L 558.0,269.0 L 557.0,270.0 L 557.0,271.0 L 556.0,272.0 L 555.0,273.0 L 555.0,274.0 L 554.0,275.0 L 553.0,276.0 L 552.0,277.0 L 552.0,278.0 L 551.0,279.0 L 550.0,280.0 L 550.0,281.0 L 549.0,282.0 L 548.0,283.0 L 547.0,284.0 L 547.0,285.0 L 546.0,286.0 L 545.0,287.0 L 544.0,288.0 L 544.0,289.0 L 543.0,290.0 L 542.0,291.0 L 542.0,292.0 L 541.0,293.0 L 540.0,294.0 L 540.0,295.0 L 541.0,296.0 L 541.0,297.0 L 542.0,298.0 L 543.0,299.0 L 544.0,300.0 L 545.0,301.0 L 546.0,302.0 L 546.0,303.0 L 547.0,304.0 L 548.0,305.0 L 549.0,306.0 L 549.0,307.0 L 550.0,308.0 L 551.0,309.0 L 552.0,310.0 L 552.0,311.0 L 553.0,312.0 L 553.0,313.0 L 554.0,314.0 L 554.0,315.0 L 555.0,316.0 L 555.0,317.0 L 556.0,318.0 L 557.0,319.0 L 557.0,320.0 L 557.0,321.0 L 558.0,322.0 L 558.0,323.0 L 559.0,324.0 L 559.0,325.0 L 560.0,326.0 L 560.0,327.0 L 560.0,328.0 L 561.0,329.0 L 561.0,330.0 L 561.0,331.0 L 562.0,332.0 L 562.0,333.0 L 562.0,334.0 L 562.0,335.0 L 563.0,336.0 L 563.0,337.0 L 563.0,338.0 L 563.0,339.0 L 564.0,340.0 L 564.0,341.0 L 564.0,342.0 L 564.0,343.0 L 564.0,344.0 L 565.0,345.0 L 565.0,346.0 L 565.0,347.0 L 565.0,348.0 L 565.0,349.0 L 565.0,350.0 L 565.0,351.0 L 565.0,352.0 L 565.0,353.0 L 566.0,354.0 L 566.0,355.0 L 566.0,356.0 L 566.0,357.0 L 566.0,358.0 L 566.0,359.0 L 566.0,360.0 L 566.0,361.0 L 566.0,362.0 L 565.0,363.0 L 565.0,364.0 L 565.0,365.0 L 565.0,366.0 L 565.0,367.0 L 565.0,368.0 L 565.0,369.0 L 565.0,370.0 L 565.0,371.0 L 565.0,372.0 L 564.0,373.0 L 564.0,374.0 L 564.0,375.0 L 564.0,376.0 L 564.0,377.0 L 564.0,378.0 L 563.0,379.0 L 563.0,380.0 L 563.0,381.0 L 562.0,382.0 L 562.0,383.0 L 562.0,384.0 L 562.0,385.0 L 561.0,386.0 L 561.0,387.0 L 561.0,388.0 L 560.0,389.0 L 560.0,390.0 L 560.0,391.0 L 559.0,392.0 L 559.0,393.0 L 558.0,394.0 L 558.0,395.0 L 557.0,396.0 L 557.0,397.0 L 556.0,398.0 L 556.0,399.0 L 555.0,400.0 L 555.0,401.0 L 554.0,402.0 L 554.0,403.0 L 553.0,404.0 L 552.0,405.0 L 552.0,406.0 L 551.0,407.0 L 551.0,408.0 L 550.0,409.0 L 549.0,410.0 L 549.0,411.0 L 548.0,412.0 L 547.0,413.0 L 546.0,414.0 L 546.0,415.0 L 545.0,416.0 L 544.0,416.0 L 544.0,417.0 L 543.0,418.0 L 542.0,419.0 L 541.0,420.0 L 540.0,421.0 L 539.0,422.0 L 538.0,423.0 L 537.0,424.0 L 536.0,425.0 L 535.0,426.0 L 534.0,427.0 L 533.0,428.0 L 532.0,428.0 L 531.0,429.0 L 530.0,430.0 L 529.0,431.0 L 528.0,431.0 L 527.0,432.0 L 526.0,433.0 L 525.0,434.0 L 524.0,434.0 L 523.0,435.0 L 522.0,435.0 L 521.0,436.0 L 520.0,437.0 L 519.0,437.0 L 518.0,438.0 L 517.0,438.0 L 516.0,439.0 L 515.0,439.0 L 514.0,440.0 L 513.0,440.0 L 512.0,441.0 L 511.0,441.0 L 510.0,442.0 L 509.0,442.0 L 508.0,442.0 L 507.0,443.0 L 506.0,443.0 L 505.0,444.0 L 504.0,444.0 L 503.0,444.0 L 502.0,445.0 L 501.0,445.0 L 500.0,445.0 L 499.0,446.0 L 498.0,446.0 L 497.0,446.0 L 496.0,446.0 L 495.0,447.0 L 494.0,447.0 L 493.0,447.0 L 492.0,447.0 L 491.0,447.0 L 490.0,447.0 L 489.0,448.0 L 488.0,448.0 L 487.0,448.0 L 486.0,448.0 L 485.0,448.0 L 484.0,448.0 L 483.0,448.0 L 482.0,448.0 L 481.0,448.0 L 480.0,448.0 L 479.0,449.0 L 478.0,449.0 L 477.0,449.0 L 476.0,449.0 L 475.0,449.0 L 474.0,449.0 L 473.0,449.0 L 472.0,449.0 L 471.0,448.0 L 470.0,448.0 L 469.0,448.0 L 468.0,448.0 L 467.0,448.0 L 466.0,448.0 L 465.0,448.0 L 464.0,448.0 L 463.0,448.0 L 462.0,448.0 L 461.0,447.0 L 460.0,447.0 L 459.0,447.0 L 458.0,447.0 L 457.0,447.0 L 456.0,447.0 L 455.0,446.0 L 454.0,446.0 L 453.0,446.0 L 452.0,446.0 L 451.0,445.0 L 450.0,445.0 L 449.0,445.0 L 448.0,444.0 L 447.0,444.0 L 446.0,444.0 L 445.0,443.0 L 444.0,443.0 L 443.0,442.0 L 442.0,442.0 L 441.0,442.0 L 440.0,441.0 L 439.0,441.0 L 438.0,440.0 L 437.0,440.0 L 436.0,439.0 L 435.0,439.0 L 434.0,438.0 L 433.0,438.0 L 432.0,437.0 L 431.0,437.0 L 430.0,436.0 L 429.0,435.0 L 428.0,435.0 L 427.0,434.0 L 426.0,434.0 L 425.0,433.0 L 424.0,432.0 L 423.0,431.0 L 422.0,431.0 L 421.0,430.0 L 420.0,429.0 L 419.0,428.0 L 418.0,427.0 L 417.0,427.0 L 416.0,426.0 L 415.0,425.0 L 414.0,424.0 L 413.0,423.0 L 412.0,422.0 L 411.0,421.0 L 410.0,420.0 L 409.0,419.0 L 408.0,418.0 L 407.0,417.0 L 407.0,416.0 L 406.0,415.0 L 405.0,414.0 L 404.0,413.0 L 403.0,412.0 L 403.0,411.0 L 402.0,410.0 L 401.0,409.0 L 401.0,408.0 L 400.0,407.0 L 399.0,406.0 L 399.0,405.0 L 398.0,404.0 L 397.0,403.0 L 397.0,402.0 L 396.0,401.0 L 396.0,400.0 L 395.0,399.0 L 395.0,398.0 L 394.0,397.0 L 394.0,396.0 L 393.0,395.0 L 393.0,394.0 L 392.0,393.0 L 392.0,392.0 L 391.0,391.0 L 391.0,390.0 L 391.0,389.0 L 390.0,388.0 L 390.0,387.0 L 390.0,386.0 L 389.0,385.0 L 389.0,384.0 L 389.0,383.0 L 388.0,382.0 L 388.0,381.0 L 388.0,380.0 L 388.0,379.0 L 387.0,378.0 L 387.0,377.0 L 387.0,376.0 L 387.0,375.0 L 387.0,374.0 L 386.0,373.0 L 386.0,372.0 L 386.0,371.0 L 386.0,370.0 L 386.0,369.0 L 386.0,368.0 L 385.0,367.0 L 385.0,366.0 L 385.0,365.0 L 385.0,364.0 L 385.0,363.0 L 385.0,362.0 L 385.0,361.0 L 385.0,360.0 L 385.0,359.0 L 385.0,358.0 L 385.0,357.0 L 385.0,356.0 L 385.0,355.0 L 385.0,354.0 L 385.0,353.0 L 385.0,352.0 L 385.0,351.0 L 385.0,350.0 L 385.0,349.0 L 386.0,348.0 L 386.0,347.0 L 386.0,346.0 L 386.0,345.0 L 386.0,344.0 L 386.0,343.0 L 386.0,342.0 L 387.0,341.0 L 387.0,340.0 L 387.0,339.0 L 387.0,338.0 L 388.0,337.0 L 388.0,336.0 L 388.0,335.0 L 388.0,334.0 L 389.0,333.0 L 389.0,332.0 L 389.0,331.0 L 390.0,330.0 L 390.0,329.0 L 390.0,328.0 L 391.0,327.0 L 391.0,326.0 L 392.0,325.0 L 392.0,324.0 L 392.0,323.0 L 393.0,322.0 L 393.0,321.0 L 394.0,320.0 L 394.0,319.0 L 395.0,318.0 L 395.0,317.0 L 396.0,316.0 L 396.0,315.0 L 397.0,314.0 L 398.0,313.0 L 398.0,312.0 L 399.0,311.0 L 399.0,310.0 L 400.0,309.0 L 401.0,308.0 L 402.0,307.0 L 402.0,306.0 L 403.0,305.0 L 404.0,304.0 L 405.0,303.0 L 405.0,302.0 L 406.0,301.0 L 407.0,300.0 L 408.0,299.0 L 409.0,298.0 L 410.0,297.0 L 411.0,296.0 L 412.0,295.0 L 413.0,294.0 L 414.0,293.0 L 415.0,292.0 L 416.0,291.0 L 417.0,290.0 L 418.0,289.0 L 419.0,288.0 L 420.0,288.0 L 421.0,287.0 L 422.0,286.0 L 423.0,285.0 L 424.0,284.0 L 425.0,284.0 L 426.0,283.0 L 427.0,282.0 L 428.0,282.0 L 429.0,281.0 L 430.0,280.0 L 431.0,280.0 L 432.0,279.0 L 433.0,279.0 L 434.0,278.0 L 435.0,278.0 L 436.0,277.0 L 437.0,277.0 L 438.0,276.0 L 439.0,276.0 L 440.0,275.0 L 441.0,275.0 L 442.0,274.0 L 443.0,274.0 L 444.0,273.0 L 445.0,273.0 L 446.0,273.0 L 447.0,272.0 L 448.0,272.0 L 449.0,272.0 L 450.0,271.0 L 451.0,271.0 L 452.0,271.0 L 453.0,270.0 L 454.0,270.0 L 455.0,270.0 L 456.0,269.0 L 457.0,269.0 L 458.0,269.0 L 459.0,269.0 L 460.0,269.0 L 461.0,268.0 L 462.0,268.0 L 463.0,268.0 L 464.0,268.0 L 465.0,268.0 L 466.0,268.0 L 467.0,268.0 L 468.0,267.0 L 469.0,267.0 L 470.0,267.0 L 471.0,267.0 L 472.0,267.0 L 473.0,267.0 L 474.0,267.0 L 475.0,267.0 L 476.0,267.0 L 477.0,267.0 L 478.0,267.0 L 479.0,267.0 L 480.0,267.0 L 481.0,267.0 L 482.0,267.0 L 483.0,267.0 L 484.0,267.0 L 485.0,267.0 L 486.0,267.0 L 487.0,267.0 L 488.0,268.0 L 489.0,268.0 L 490.0,268.0 L 491.0,268.0 L 492.0,268.0 L 493.0,267.0 L 492.0,266.0 L 493.0,265.0 L 492.0,264.0 L 492.0,263.0 L 492.0,262.0 L 491.0,261.0 L 491.0,260.0 L 490.0,259.0 L 489.0,258.0 L 488.0,257.0 L 488.0,256.0 L 487.0,255.0 L 486.0,254.0 L 485.0,253.0 L 485.0,252.0 L 484.0,251.0 L 483.0,250.0 L 482.0,249.0 L 482.0,248.0 L 481.0,247.0 L 480.0,246.0 L 479.0,245.0 L 479.0,244.0 L 478.0,243.0 L 477.0,242.0 L 477.0,241.0 L 476.0,240.0 L 475.0,239.0 L 474.0,238.0 L 474.0,237.0 L 473.0,236.0 L 472.0,235.0 L 471.0,234.0 L 471.0,233.0 L 470.0,232.0 L 469.0,231.0 L 469.0,230.0 L 468.0,229.0 L 467.0,228.0 L 466.0,227.0 L 466.0,226.0 L 465.0,225.0 L 464.0,224.0 L 463.0,223.0 L 463.0,222.0 L 462.0,221.0 L 461.0,220.0 L 461.0,219.0 L 460.0,218.0 L 459.0,217.0 L 459.0,216.0 L 458.0,215.0 L 457.0,214.0 L 456.0,213.0 L 456.0,212.0 L 455.0,211.0 L 454.0,210.0 L 453.0,209.0 L 453.0,208.0 L 452.0,207.0 L 451.0,206.0 L 451.0,205.0 L 450.0,204.0 L 449.0,203.0 L 448.0,202.0 L 447.0,201.0 L 447.0,200.0 L 446.0,199.0 L 445.0,198.0 L 445.0,197.0 L 444.0,196.0 L 443.0,195.0 L 443.0,194.0 L 442.0,194.0 Z" fill="black" stroke="none" /><path d="M 490.0,100.0 L 489.0,101.0 L 488.0,102.0 L 487.0,103.0 L 486.0,104.0 L 486.0,105.0 L 485.0,106.0 L 484.0,107.0 L 483.0,108.0 L 483.0,109.0 L 482.0,110.0 L 481.0,111.0 L 480.0,112.0 L 480.0,113.0 L 479.0,114.0 L 478.0,115.0 L 477.0,116.0 L 477.0,117.0 L 476.0,118.0 L 475.0,119.0 L 474.0,120.0 L 474.0,121.0 L 473.0,122.0 L 472.0,122.0 L 472.0,123.0 L 471.0,124.0 L 470.0,125.0 L 470.0,126.0 L 469.0,127.0 L 468.0,128.0 L 467.0,129.0 L 466.0,130.0 L 466.0,131.0 L 465.0,132.0 L 464.0,133.0 L 463.0,134.0 L 463.0,135.0 L 462.0,136.0 L 461.0,137.0 L 460.0,138.0 L 460.0,139.0 L 459.0,140.0 L 458.0,141.0 L 457.0,142.0 L 456.0,143.0 L 455.0,144.0 L 455.0,145.0 L 454.0,146.0 L 453.0,147.0 L 453.0,148.0 L 452.0,149.0 L 451.0,150.0 L 450.0,151.0 L 449.0,152.0 L 449.0,153.0 L 448.0,154.0 L 447.0,155.0 L 447.0,156.0 L 446.0,157.0 L 445.0,158.0 L 444.0,159.0 L 443.0,160.0 L 443.0,161.0 L 443.0,162.0 L 443.0,163.0 L 444.0,164.0 L 444.0,165.0 L 445.0,166.0 L 446.0,167.0 L 447.0,168.0 L 447.0,169.0 L 448.0,170.0 L 449.0,171.0 L 449.0,172.0 L 450.0,173.0 L 451.0,174.0 L 451.0,175.0 L 452.0,176.0 L 453.0,177.0 L 454.0,178.0 L 454.0,179.0 L 455.0,180.0 L 456.0,181.0 L 457.0,182.0 L 457.0,183.0 L 458.0,184.0 L 459.0,185.0 L 459.0,186.0 L 460.0,187.0 L 461.0,188.0 L 461.0,189.0 L 462.0,190.0 L 463.0,191.0 L 464.0,192.0 L 464.0,193.0 L 465.0,194.0 L 466.0,195.0 L 466.0,196.0 L 467.0,197.0 L 468.0,198.0 L 468.0,199.0 L 469.0,200.0 L 470.0,201.0 L 471.0,202.0 L 471.0,203.0 L 472.0,204.0 L 473.0,205.0 L 474.0,206.0 L 474.0,207.0 L 475.0,208.0 L 476.0,209.0 L 476.0,210.0 L 477.0,211.0 L 478.0,212.0 L 479.0,213.0 L 479.0,214.0 L 480.0,215.0 L 481.0,216.0 L 481.0,217.0 L 482.0,218.0 L 483.0,219.0 L 483.0,220.0 L 484.0,221.0 L 485.0,222.0 L 485.0,223.0 L 486.0,224.0 L 487.0,225.0 L 488.0,226.0 L 488.0,227.0 L 489.0,228.0 L 490.0,229.0 L 491.0,230.0 L 491.0,231.0 L 492.0,232.0 L 493.0,233.0 L 493.0,234.0 L 494.0,235.0 L 495.0,236.0 L 495.0,237.0 L 496.0,238.0 L 497.0,239.0 L 498.0,240.0 L 498.0,241.0 L 499.0,242.0 L 500.0,243.0 L 500.0,244.0 L 501.0,245.0 L 502.0,246.0 L 502.0,247.0 L 503.0,248.0 L 504.0,249.0 L 505.0,250.0 L 506.0,251.0 L 506.0,252.0 L 507.0,253.0 L 508.0,254.0 L 508.0,255.0 L 509.0,256.0 L 510.0,257.0 L 511.0,258.0 L 511.0,259.0 L 512.0,260.0 L 512.0,261.0 L 513.0,262.0 L 514.0,263.0 L 515.0,264.0 L 515.0,265.0 L 516.0,266.0 L 517.0,267.0 L 517.0,268.0 L 518.0,269.0 L 519.0,270.0 L 519.0,271.0 L 520.0,272.0 L 521.0,273.0 L 522.0,274.0 L 522.0,275.0 L 523.0,276.0 L 524.0,277.0 L 525.0,278.0 L 525.0,279.0 L 526.0,280.0 L 527.0,280.0 L 527.0,279.0 L 528.0,278.0 L 529.0,277.0 L 529.0,276.0 L 530.0,275.0 L 531.0,274.0 L 531.0,273.0 L 532.0,272.0 L 533.0,271.0 L 533.0,270.0 L 534.0,269.0 L 535.0,268.0 L 536.0,267.0 L 536.0,266.0 L 537.0,265.0 L 538.0,264.0 L 539.0,263.0 L 539.0,262.0 L 540.0,261.0 L 541.0,260.0 L 541.0,259.0 L 542.0,258.0 L 543.0,257.0 L 543.0,256.0 L 544.0,255.0 L 545.0,254.0 L 546.0,253.0 L 546.0,252.0 L 547.0,251.0 L 548.0,250.0 L 548.0,249.0 L 549.0,248.0 L 550.0,247.0 L 551.0,246.0 L 552.0,245.0 L 552.0,244.0 L 553.0,243.0 L 554.0,242.0 L 554.0,241.0 L 555.0,240.0 L 556.0,239.0 L 556.0,238.0 L 557.0,237.0 L 558.0,236.0 L 559.0,235.0 L 559.0,234.0 L 560.0,233.0 L 561.0,232.0 L 562.0,231.0 L 562.0,230.0 L 563.0,229.0 L 564.0,228.0 L 565.0,227.0 L 565.0,226.0 L 566.0,225.0 L 567.0,224.0 L 568.0,223.0 L 568.0,222.0 L 569.0,221.0 L 570.0,220.0 L 571.0,219.0 L 571.0,218.0 L 572.0,217.0 L 573.0,216.0 L 574.0,215.0 L 573.0,214.0 L 573.0,213.0 L 572.0,212.0 L 571.0,211.0 L 570.0,210.0 L 570.0,209.0 L 569.0,208.0 L 568.0,207.0 L 568.0,206.0 L 567.0,205.0 L 566.0,204.0 L 565.0,203.0 L 565.0,202.0 L 564.0,201.0 L 563.0,200.0 L 562.0,199.0 L 562.0,198.0 L 561.0,197.0 L 560.0,196.0 L 559.0,195.0 L 559.0,194.0 L 558.0,193.0 L 557.0,192.0 L 557.0,191.0 L 556.0,190.0 L 555.0,189.0 L 554.0,188.0 L 554.0,187.0 L 553.0,186.0 L 552.0,185.0 L 552.0,184.0 L 551.0,183.0 L 550.0,182.0 L 549.0,181.0 L 548.0,180.0 L 548.0,179.0 L 547.0,178.0 L 546.0,177.0 L 546.0,176.0 L 545.0,175.0 L 544.0,174.0 L 543.0,173.0 L 543.0,172.0 L 542.0,171.0 L 541.0,170.0 L 540.0,169.0 L 540.0,168.0 L 539.0,167.0 L 538.0,166.0 L 538.0,165.0 L 537.0,164.0 L 536.0,163.0 L 535.0,162.0 L 535.0,161.0 L 534.0,160.0 L 533.0,159.0 L 532.0,158.0 L 532.0,157.0 L 531.0,156.0 L 530.0,155.0 L 530.0,154.0 L 529.0,153.0 L 528.0,152.0 L 527.0,151.0 L 527.0,150.0 L 526.0,149.0 L 525.0,148.0 L 524.0,147.0 L 524.0,146.0 L 523.0,145.0 L 522.0,144.0 L 521.0,143.0 L 521.0,142.0 L 520.0,141.0 L 519.0,140.0 L 519.0,139.0 L 518.0,138.0 L 517.0,137.0 L 516.0,136.0 L 516.0,135.0 L 515.0,134.0 L 514.0,133.0 L 513.0,132.0 L 513.0,131.0 L 512.0,130.0 L 511.0,129.0 L 511.0,128.0 L 510.0,127.0 L 509.0,126.0 L 508.0,125.0 L 507.0,124.0 L 507.0,123.0 L 506.0,122.0 L 505.0,121.0 L 505.0,120.0 L 504.0,119.0 L 503.0,118.0 L 502.0,117.0 L 501.0,116.0 L 501.0,115.0 L 500.0,114.0 L 499.0,113.0 L 499.0,112.0 L 498.0,111.0 L 497.0,110.0 L 496.0,109.0 L 496.0,108.0 L 495.0,107.0 L 494.0,106.0 L 494.0,105.0 L 493.0,104.0 L 492.0,103.0 L 491.0,102.0 L 491.0,101.0 Z" fill="black" stroke="none" /></svg>